# Blender v3.2.1 OBJ File: 'Die.blend'
# www.blender.org
mtllib Die.mtl
o Cube
v 0.944032 0.944032 -1.000000
v 0.944032 1.000000 -0.944032
v 1.000000 0.944032 -0.944032
v 0.944032 0.983607 -0.983607
v 0.976345 0.976345 -0.976345
v 0.983607 0.983607 -0.944032
v 0.983607 0.944032 -0.983607
v 0.944032 -1.000000 -0.944032
v 0.944032 -0.944032 -1.000000
v 1.000000 -0.944032 -0.944032
v 0.944032 -0.983607 -0.983607
v 0.976345 -0.976345 -0.976345
v 0.983607 -0.944032 -0.983607
v 0.983607 -0.983607 -0.944032
v 1.000000 0.944032 0.944032
v 0.944032 1.000000 0.944032
v 0.944032 0.944032 1.000000
v 0.983607 0.983607 0.944032
v 0.976345 0.976345 0.976345
v 0.944032 0.983607 0.983607
v 0.983607 0.944032 0.983607
v 1.000000 -0.944032 0.944032
v 0.944032 -0.944032 1.000000
v 0.944032 -1.000000 0.944032
v 0.983607 -0.944032 0.983607
v 0.976345 -0.976345 0.976345
v 0.944032 -0.983607 0.983607
v 0.983607 -0.983607 0.944032
v -0.944032 0.944032 -1.000000
v -1.000000 0.944032 -0.944032
v -0.944032 1.000000 -0.944032
v -0.983607 0.944032 -0.983607
v -0.976345 0.976345 -0.976345
v -0.983607 0.983607 -0.944032
v -0.944032 0.983607 -0.983607
v -1.000000 -0.944032 -0.944032
v -0.944032 -0.944032 -1.000000
v -0.944032 -1.000000 -0.944032
v -0.983607 -0.944032 -0.983607
v -0.976345 -0.976345 -0.976345
v -0.944032 -0.983607 -0.983607
v -0.983607 -0.983607 -0.944032
v -1.000000 0.944032 0.944032
v -0.944032 0.944032 1.000000
v -0.944032 1.000000 0.944032
v -0.983607 0.944032 0.983607
v -0.976345 0.976345 0.976345
v -0.944032 0.983607 0.983607
v -0.983607 0.983607 0.944032
v -0.944032 -1.000000 0.944032
v -0.944032 -0.944032 1.000000
v -1.000000 -0.944032 0.944032
v -0.944032 -0.983607 0.983607
v -0.976345 -0.976345 0.976345
v -0.983607 -0.944032 0.983607
v -0.983607 -0.983607 0.944032
v -0.944032 -1.000000 0.000000
v -0.983607 -0.983607 0.000000
v -1.000000 -0.944032 0.000000
v 0.944032 1.000000 0.000000
v 0.983607 0.983607 0.000000
v 1.000000 0.944032 0.000000
v -0.944032 1.000000 0.000000
v -0.983607 0.983607 0.000000
v -1.000000 0.944032 0.000000
v 0.944032 -1.000000 0.000000
v 0.983607 -0.983607 0.000000
v 1.000000 -0.944032 0.000000
v 0.000000 -1.000000 -0.944032
v 0.000000 -0.983607 -0.983607
v 0.000000 -0.944032 -1.000000
v 0.000000 1.000000 0.944032
v 0.000000 0.983607 0.983607
v 0.000000 0.944032 1.000000
v 0.000000 -1.000000 0.944032
v 0.000000 -0.983607 0.983607
v 0.000000 -0.944032 1.000000
v 0.000000 1.000000 -0.944032
v 0.000000 0.983607 -0.983607
v 0.000000 0.944032 -1.000000
v 0.000000 1.000000 0.000000
v 0.000000 -1.000000 0.000000
v 1.000000 0.000000 -0.944032
v 0.983607 0.000000 -0.983607
v 0.944032 0.000000 -1.000000
v -0.944032 0.000000 1.000000
v -0.983607 0.000000 0.983607
v -1.000000 0.000000 0.944032
v 0.944032 0.000000 1.000000
v 0.983607 0.000000 0.983607
v 1.000000 0.000000 0.944032
v -0.944032 0.000000 -1.000000
v -0.983607 0.000000 -0.983607
v -1.000000 0.000000 -0.944032
v 1.000000 0.000000 0.000000
v -1.000000 0.000000 0.000000
v 0.000000 0.000000 -1.000000
v 0.000000 0.000000 1.000000
vt 0.499810 0.500015
vt 0.992032 0.499973
vt 0.991780 0.992126
vt 0.499679 0.992290
vt 0.992285 0.007820
vt 0.992662 0.000539
vt 0.998492 0.001650
vt 0.999515 0.007496
vt 0.999063 0.992487
vt 0.997952 0.998335
vt 0.992088 0.999357
vt 0.007598 0.007659
vt 0.000315 0.007298
vt 0.001425 0.001450
vt 0.007289 0.000428
vt 0.007579 0.992453
vt 0.007202 0.999734
vt 0.001372 0.998623
vt 0.000349 0.992777
vt 0.007589 0.500056
vt 0.000332 0.500038
vt 0.499942 0.007739
vt 0.499976 0.000483
vt 0.499645 0.999546
vt 0.999289 0.499991
vt 0.499810 0.500015
vt 0.007589 0.500056
vt 0.007598 0.007659
vt 0.499942 0.007740
vt 0.991780 0.992126
vt 0.999063 0.992487
vt 0.997952 0.998335
vt 0.992089 0.999357
vt 0.992285 0.007820
vt 0.992662 0.000539
vt 0.998492 0.001650
vt 0.999515 0.007496
vt 0.007579 0.992453
vt 0.007202 0.999734
vt 0.001372 0.998623
vt 0.000350 0.992778
vt 0.000315 0.007298
vt 0.001425 0.001450
vt 0.007289 0.000428
vt 0.499976 0.000483
vt 0.992032 0.499973
vt 0.999289 0.499991
vt 0.000332 0.500038
vt 0.499679 0.992290
vt 0.499645 0.999546
vt 0.499810 0.500015
vt 0.007589 0.500056
vt 0.007598 0.007659
vt 0.499942 0.007740
vt 0.000315 0.007298
vt 0.001425 0.001450
vt 0.007289 0.000428
vt 0.992285 0.007820
vt 0.992662 0.000539
vt 0.998492 0.001650
vt 0.999515 0.007496
vt 0.007579 0.992454
vt 0.007202 0.999735
vt 0.001372 0.998623
vt 0.000350 0.992778
vt 0.991780 0.992126
vt 0.999063 0.992487
vt 0.997952 0.998336
vt 0.992089 0.999357
vt 0.999289 0.499992
vt 0.992032 0.499973
vt 0.499645 0.999546
vt 0.499679 0.992290
vt 0.499976 0.000484
vt 0.499810 0.500014
vt 0.007589 0.500056
vt 0.007598 0.007659
vt 0.499942 0.007739
vt 0.007579 0.992452
vt 0.007202 0.999733
vt 0.001372 0.998622
vt 0.000350 0.992777
vt 0.991780 0.992126
vt 0.999063 0.992487
vt 0.997952 0.998335
vt 0.992089 0.999357
vt 0.000315 0.007298
vt 0.001425 0.001450
vt 0.007289 0.000428
vt 0.992285 0.007819
vt 0.992662 0.000538
vt 0.998492 0.001649
vt 0.999515 0.007495
vt 0.499679 0.992289
vt 0.499645 0.999545
vt 0.499976 0.000483
vt 0.000332 0.500037
vt 0.992032 0.499972
vt 0.007598 0.007659
vt 0.000315 0.007298
vt 0.001425 0.001450
vt 0.007289 0.000428
vt 0.992285 0.007819
vt 0.992662 0.000538
vt 0.998492 0.001649
vt 0.999515 0.007495
vt 0.007579 0.992452
vt 0.007202 0.999733
vt 0.000350 0.992776
vt 0.991780 0.992126
vt 0.999063 0.992487
vt 0.997952 0.998335
vt 0.992088 0.999357
vt 0.999289 0.499991
vt 0.992032 0.499972
vt 0.499976 0.000483
vt 0.499942 0.007739
vt 0.499679 0.992289
vt 0.499645 0.999545
vt 0.000332 0.500037
vt 0.007589 0.500056
vt 0.499810 0.500014
vt 0.499810 0.500015
vt 0.007589 0.500056
vt 0.007598 0.007659
vt 0.499942 0.007739
vt 0.007579 0.992453
vt 0.007202 0.999734
vt 0.001372 0.998623
vt 0.000350 0.992777
vt 0.991779 0.992126
vt 0.999063 0.992487
vt 0.992088 0.999357
vt 0.000315 0.007298
vt 0.007289 0.000428
vt 0.992285 0.007820
vt 0.992662 0.000539
vt 0.998492 0.001650
vt 0.999515 0.007496
vt 0.499976 0.000483
vt 0.499679 0.992290
vt 0.499645 0.999546
vt 0.000332 0.500038
vt 0.999289 0.499991
vt 0.992032 0.499973
vn 0.0000 -1.0000 0.0000
vn 0.3251 -0.8881 -0.3251
vn 0.3251 -0.8881 0.3251
vn -0.3251 -0.8881 -0.3251
vn -0.3251 -0.8881 0.3251
vn -0.3827 -0.9239 0.0000
vn 0.0000 -0.9239 -0.3827
vn 0.0000 -0.9239 0.3827
vn 0.3827 -0.9239 0.0000
vn 0.0000 1.0000 0.0000
vn 0.3251 0.8881 -0.3251
vn 0.3251 0.8881 0.3251
vn -0.3251 0.8881 -0.3251
vn -0.3251 0.8881 0.3251
vn 0.0000 0.9239 0.3827
vn 0.3827 0.9239 0.0000
vn -0.3827 0.9239 0.0000
vn 0.0000 0.9239 -0.3827
vn -1.0000 0.0000 0.0000
vn -0.8881 0.3251 -0.3251
vn -0.8881 -0.3251 -0.3251
vn -0.8881 0.3251 0.3251
vn -0.8881 -0.3251 0.3251
vn -0.9239 -0.3827 0.0000
vn -0.9239 0.0000 0.3827
vn -0.9239 0.0000 -0.3827
vn -0.9239 0.3827 0.0000
vn 1.0000 0.0000 0.0000
vn 0.8881 0.3251 -0.3251
vn 0.8881 -0.3251 -0.3251
vn 0.8881 0.3251 0.3251
vn 0.8881 -0.3251 0.3251
vn 0.9239 0.0000 -0.3827
vn 0.9239 0.0000 0.3827
vn 0.9239 0.3827 0.0000
vn 0.9239 -0.3827 0.0000
vn 0.3251 0.3251 -0.8881
vn 0.3251 -0.3251 -0.8881
vn -0.3251 0.3251 -0.8881
vn -0.3251 -0.3251 -0.8881
vn 0.0000 -0.3827 -0.9239
vn 0.3827 0.0000 -0.9239
vn -0.3827 0.0000 -0.9239
vn 0.0000 0.3827 -0.9239
vn 0.0000 0.0000 -1.0000
vn 0.0000 0.0000 1.0000
vn 0.3251 0.3251 0.8881
vn 0.3251 -0.3251 0.8881
vn -0.3251 0.3251 0.8881
vn -0.3251 -0.3251 0.8881
vn -0.3827 0.0000 0.9239
vn 0.3827 0.0000 0.9239
vn 0.0000 0.3827 0.9239
vn 0.0000 -0.3827 0.9239
usemtl Mat_A
s off
f 82/1/1 66/2/1 24/3/1 75/4/1
f 8/5/2 11/6/2 12/7/2 14/8/2
f 24/3/3 28/9/3 26/10/3 27/11/3
f 38/12/4 42/13/4 40/14/4 41/15/4
f 50/16/5 53/17/5 54/18/5 56/19/5
f 57/20/6 50/16/6 56/19/6 58/21/6
f 69/22/7 38/12/7 41/15/7 70/23/7
f 75/4/8 24/3/8 27/11/8 76/24/8
f 66/2/9 8/5/9 14/8/9 67/25/9
f 24/3/9 66/2/9 67/25/9 28/9/9
f 38/12/6 57/20/6 58/21/6 42/13/6
f 69/22/1 8/5/1 66/2/1 82/1/1
f 38/12/1 69/22/1 82/1/1 57/20/1
f 50/16/8 75/4/8 76/24/8 53/17/8
f 8/5/7 69/22/7 70/23/7 11/6/7
f 57/20/1 82/1/1 75/4/1 50/16/1
usemtl Mat_B
f 81/26/10 63/27/10 45/28/10 72/29/10
f 2/30/11 6/31/11 5/32/11 4/33/11
f 16/34/12 20/35/12 19/36/12 18/37/12
f 31/38/13 35/39/13 33/40/13 34/41/13
f 45/28/14 49/42/14 47/43/14 48/44/14
f 72/29/15 45/28/15 48/44/15 73/45/15
f 60/46/16 16/34/16 18/37/16 61/47/16
f 63/27/17 31/38/17 34/41/17 64/48/17
f 78/49/18 2/30/18 4/33/18 79/50/18
f 45/28/17 63/27/17 64/48/17 49/42/17
f 2/30/16 60/46/16 61/47/16 6/31/16
f 78/49/10 31/38/10 63/27/10 81/26/10
f 2/30/10 78/49/10 81/26/10 60/46/10
f 31/38/18 78/49/18 79/50/18 35/39/18
f 16/34/15 72/29/15 73/45/15 20/35/15
f 60/46/10 81/26/10 72/29/10 16/34/10
usemtl Mat_C
f 96/51/19 65/52/19 30/53/19 94/54/19
f 30/53/20 34/55/20 33/56/20 32/57/20
f 36/58/21 39/59/21 40/60/21 42/61/21
f 43/62/22 46/63/22 47/64/22 49/65/22
f 52/66/23 56/67/23 54/68/23 55/69/23
f 58/70/24 56/67/24 52/66/24 59/71/24
f 87/72/25 46/63/25 43/62/25 88/73/25
f 93/74/26 39/59/26 36/58/26 94/54/26
f 64/48/27 34/55/27 30/53/27 65/52/27
f 49/65/27 64/48/27 65/52/27 43/62/27
f 42/61/24 58/70/24 59/71/24 36/58/24
f 88/73/19 43/62/19 65/52/19 96/51/19
f 52/66/19 88/73/19 96/51/19 59/71/19
f 32/57/26 93/74/26 94/54/26 30/53/26
f 55/69/25 87/72/25 88/73/25 52/66/25
f 59/71/19 96/51/19 94/54/19 36/58/19
usemtl Mat_D
f 95/75/28 62/76/28 15/77/28 91/78/28
f 3/79/29 7/80/29 5/81/29 6/82/29
f 10/83/30 14/84/30 12/85/30 13/86/30
f 15/77/31 18/87/31 19/88/31 21/89/31
f 22/90/32 25/91/32 26/92/32 28/93/32
f 83/94/33 10/83/33 13/86/33 84/95/33
f 90/96/34 25/91/34 22/90/34 91/78/34
f 61/97/35 18/87/35 15/77/35 62/76/35
f 67/25/36 14/84/36 10/83/36 68/98/36
f 28/93/36 67/25/36 68/98/36 22/90/36
f 6/82/35 61/97/35 62/76/35 3/79/35
f 83/94/28 3/79/28 62/76/28 95/75/28
f 10/83/28 83/94/28 95/75/28 68/98/28
f 21/89/34 90/96/34 91/78/34 15/77/34
f 3/79/33 83/94/33 84/95/33 7/80/33
f 68/98/28 95/75/28 91/78/28 22/90/28
usemtl Mat_E
f 1/99/37 4/100/37 5/101/37 7/102/37
f 9/103/38 13/104/38 12/105/38 11/106/38
f 29/107/39 32/108/39 33/40/39 35/109/39
f 37/110/40 41/111/40 40/112/40 39/113/40
f 70/114/41 41/111/41 37/110/41 71/115/41
f 84/116/42 13/104/42 9/103/42 85/117/42
f 92/118/43 37/110/43 39/113/43 93/119/43
f 79/120/44 4/100/44 1/99/44 80/121/44
f 97/122/45 80/121/45 1/99/45 85/117/45
f 92/118/45 29/107/45 80/121/45 97/122/45
f 35/109/44 79/120/44 80/121/44 29/107/44
f 11/106/41 70/114/41 71/115/41 9/103/41
f 37/110/45 92/118/45 97/122/45 71/115/45
f 71/115/45 97/122/45 85/117/45 9/103/45
f 29/107/43 92/118/43 93/119/43 32/108/43
f 7/102/42 84/116/42 85/117/42 1/99/42
usemtl Mat_F
f 98/123/46 74/124/46 44/125/46 86/126/46
f 17/127/47 21/128/47 19/129/47 20/130/47
f 23/131/48 27/132/48 26/10/48 25/133/48
f 44/125/49 48/134/49 47/43/49 46/135/49
f 51/136/50 55/137/50 54/138/50 53/139/50
f 86/126/51 44/125/51 46/135/51 87/140/51
f 89/141/52 23/131/52 25/133/52 90/142/52
f 73/143/53 48/134/53 44/125/53 74/124/53
f 76/144/54 27/132/54 23/131/54 77/145/54
f 53/139/54 76/144/54 77/145/54 51/136/54
f 20/130/53 73/143/53 74/124/53 17/127/53
f 89/141/46 17/127/46 74/124/46 98/123/46
f 23/131/46 89/141/46 98/123/46 77/145/46
f 17/127/52 89/141/52 90/142/52 21/128/52
f 51/136/51 86/126/51 87/140/51 55/137/51
f 77/145/46 98/123/46 86/126/46 51/136/46
