# Blender v3.2.1 OBJ File: 'Die.blend'
# www.blender.org
o Cube
v 0.944032 0.944032 -1.000000
v 0.944032 1.000000 -0.944032
v 1.000000 0.944032 -0.944032
v 0.944032 0.983607 -0.983607
v 0.976345 0.976345 -0.976345
v 0.983607 0.983607 -0.944032
v 0.983607 0.944032 -0.983607
v 0.944032 -1.000000 -0.944032
v 0.944032 -0.944032 -1.000000
v 1.000000 -0.944032 -0.944032
v 0.944032 -0.983607 -0.983607
v 0.976345 -0.976345 -0.976345
v 0.983607 -0.944032 -0.983607
v 0.983607 -0.983607 -0.944032
v 1.000000 0.944032 0.944032
v 0.944032 1.000000 0.944032
v 0.944032 0.944032 1.000000
v 0.983607 0.983607 0.944032
v 0.976345 0.976345 0.976345
v 0.944032 0.983607 0.983607
v 0.983607 0.944032 0.983607
v 1.000000 -0.944032 0.944032
v 0.944032 -0.944032 1.000000
v 0.944032 -1.000000 0.944032
v 0.983607 -0.944032 0.983607
v 0.976345 -0.976345 0.976345
v 0.944032 -0.983607 0.983607
v 0.983607 -0.983607 0.944032
v -0.944032 0.944032 -1.000000
v -1.000000 0.944032 -0.944032
v -0.944032 1.000000 -0.944032
v -0.983607 0.944032 -0.983607
v -0.976345 0.976345 -0.976345
v -0.983607 0.983607 -0.944032
v -0.944032 0.983607 -0.983607
v -1.000000 -0.944032 -0.944032
v -0.944032 -0.944032 -1.000000
v -0.944032 -1.000000 -0.944032
v -0.983607 -0.944032 -0.983607
v -0.976345 -0.976345 -0.976345
v -0.944032 -0.983607 -0.983607
v -0.983607 -0.983607 -0.944032
v -1.000000 0.944032 0.944032
v -0.944032 0.944032 1.000000
v -0.944032 1.000000 0.944032
v -0.983607 0.944032 0.983607
v -0.976345 0.976345 0.976345
v -0.944032 0.983607 0.983607
v -0.983607 0.983607 0.944032
v -0.944032 -1.000000 0.944032
v -0.944032 -0.944032 1.000000
v -1.000000 -0.944032 0.944032
v -0.944032 -0.983607 0.983607
v -0.976345 -0.976345 0.976345
v -0.983607 -0.944032 0.983607
v -0.983607 -0.983607 0.944032
v -0.944032 -1.000000 0.000000
v -0.983607 -0.983607 0.000000
v -1.000000 -0.944032 0.000000
v 0.944032 1.000000 0.000000
v 0.983607 0.983607 0.000000
v 1.000000 0.944032 0.000000
v -0.944032 1.000000 0.000000
v -0.983607 0.983607 0.000000
v -1.000000 0.944032 0.000000
v 0.944032 -1.000000 0.000000
v 0.983607 -0.983607 0.000000
v 1.000000 -0.944032 0.000000
v 0.000000 -1.000000 -0.944032
v 0.000000 -0.983607 -0.983607
v 0.000000 -0.944032 -1.000000
v 0.000000 1.000000 0.944032
v 0.000000 0.983607 0.983607
v 0.000000 0.944032 1.000000
v 0.000000 -1.000000 0.944032
v 0.000000 -0.983607 0.983607
v 0.000000 -0.944032 1.000000
v 0.000000 1.000000 -0.944032
v 0.000000 0.983607 -0.983607
v 0.000000 0.944032 -1.000000
v 0.000000 1.000000 0.000000
v 0.000000 -1.000000 0.000000
v 1.000000 0.000000 -0.944032
v 0.983607 0.000000 -0.983607
v 0.944032 0.000000 -1.000000
v -0.944032 0.000000 1.000000
v -0.983607 0.000000 0.983607
v -1.000000 0.000000 0.944032
v 0.944032 0.000000 1.000000
v 0.983607 0.000000 0.983607
v 1.000000 0.000000 0.944032
v -0.944032 0.000000 -1.000000
v -0.983607 0.000000 -0.983607
v -1.000000 0.000000 -0.944032
v 1.000000 0.000000 0.000000
v -1.000000 0.000000 0.000000
v 0.000000 0.000000 -1.000000
v 0.000000 0.000000 1.000000
vt 0.500000 0.500000
vt 0.500000 0.340039
vt 0.659961 0.340039
vt 0.659961 0.500000
vt 0.166911 0.833171
vt 0.326872 0.833171
vt 0.326872 0.993131
vt 0.166911 0.993131
vt 0.834913 0.499349
vt 0.834913 0.659310
vt 0.676188 0.659310
vt 0.676188 0.499349
vt 0.833252 0.833171
vt 0.833252 0.673210
vt 0.993213 0.673210
vt 0.993213 0.833171
vt 0.166667 0.500000
vt 0.326627 0.500000
vt 0.326627 0.659961
vt 0.166667 0.659961
vt 0.341634 0.992643
vt 0.341289 0.999349
vt 0.335704 0.998118
vt 0.334635 0.992643
vt 0.673291 0.993131
vt 0.673291 0.999837
vt 0.667816 0.998607
vt 0.666585 0.993131
vt 0.326627 0.340039
vt 0.326627 0.333333
vt 0.332103 0.334564
vt 0.333333 0.340039
vt 0.340039 0.340039
vt 0.333333 0.340039
vt 0.334564 0.334564
vt 0.340039 0.333333
vt 0.341634 0.672721
vt 0.334635 0.672721
vt 0.335704 0.667246
vt 0.341289 0.666016
vt 0.006706 0.340039
vt 0.000000 0.340039
vt 0.001231 0.334564
vt 0.006706 0.333333
vt 0.333333 0.659961
vt 0.332103 0.665436
vt 0.326627 0.666667
vt 0.993213 0.993131
vt 0.999918 0.993131
vt 0.998688 0.998607
vt 0.993213 0.999837
vt 0.993637 0.659310
vt 0.999947 0.659310
vt 0.998573 0.664785
vt 0.993293 0.666016
vt 0.006706 0.659961
vt 0.006706 0.666667
vt 0.001231 0.665436
vt 0.000000 0.659961
vt 0.993638 0.339388
vt 0.993293 0.332682
vt 0.998573 0.333913
vt 0.999947 0.339388
vt 0.659961 0.333333
vt 0.665436 0.334564
vt 0.666667 0.340039
vt 0.659083 0.992643
vt 0.665393 0.992643
vt 0.664019 0.998118
vt 0.658739 0.999349
vt 0.333577 0.993131
vt 0.332347 0.998607
vt 0.326872 0.999837
vt 0.673291 0.673210
vt 0.666585 0.673210
vt 0.667816 0.667734
vt 0.673291 0.666504
vt 0.006950 0.993131
vt 0.006950 0.999837
vt 0.001475 0.998607
vt 0.000244 0.993131
vt 0.659083 0.672721
vt 0.658739 0.666016
vt 0.664019 0.667246
vt 0.665393 0.672721
vt 0.340039 0.659961
vt 0.340039 0.666667
vt 0.334564 0.665436
vt 0.333333 0.659961
vt 0.326872 0.673210
vt 0.326872 0.666504
vt 0.332347 0.667734
vt 0.333577 0.673210
vt 0.675843 0.666016
vt 0.670258 0.664785
vt 0.669189 0.659310
vt 0.993213 0.666504
vt 0.998688 0.667734
vt 0.999918 0.673210
vt 0.659961 0.659961
vt 0.666667 0.659961
vt 0.665436 0.665436
vt 0.659961 0.666667
vt 0.676188 0.339388
vt 0.669189 0.339388
vt 0.670258 0.333913
vt 0.675843 0.332682
vt 0.006950 0.673210
vt 0.000244 0.673210
vt 0.001475 0.667734
vt 0.006950 0.666504
vt 0.500000 0.659961
vt 0.500000 0.666667
vt 0.000244 0.833171
vt 0.006950 0.833171
vt 0.340039 0.500000
vt 0.333333 0.500000
vt 0.500014 0.666016
vt 0.500359 0.672721
vt 0.166667 0.340039
vt 0.166667 0.333333
vt 0.334635 0.832682
vt 0.341634 0.832682
vt 0.669189 0.499349
vt 0.166911 0.666504
vt 0.166911 0.673210
vt 0.993637 0.499349
vt 0.999947 0.499349
vt 0.166667 0.666667
vt 0.659083 0.832682
vt 0.665393 0.832682
vt 0.166911 0.999837
vt 0.999918 0.833171
vt 0.834568 0.666016
vt 0.833252 0.993131
vt 0.833252 0.999837
vt 0.333333 0.500000
vt 0.666667 0.500000
vt 0.834568 0.332682
vt 0.834913 0.339388
vt 0.833252 0.666504
vt 0.333577 0.833171
vt 0.673291 0.833171
vt 0.666585 0.833171
vt 0.500014 0.999349
vt 0.500359 0.992643
vt 0.500000 0.333333
vt 0.000000 0.500000
vt 0.006706 0.500000
vt 0.500359 0.832682
vn 0.0000 -1.0000 0.0000
vn -1.0000 0.0000 0.0000
vn 0.0000 0.0000 1.0000
vn 0.0000 1.0000 0.0000
vn 1.0000 0.0000 0.0000
vn 0.3251 0.3251 -0.8881
vn 0.3251 0.8881 -0.3251
vn 0.8881 0.3251 -0.3251
vn 0.3251 -0.8881 -0.3251
vn 0.3251 -0.3251 -0.8881
vn 0.8881 -0.3251 -0.3251
vn 0.8881 0.3251 0.3251
vn 0.3251 0.8881 0.3251
vn 0.3251 0.3251 0.8881
vn 0.8881 -0.3251 0.3251
vn 0.3251 -0.3251 0.8881
vn 0.3251 -0.8881 0.3251
vn -0.3251 0.3251 -0.8881
vn -0.8881 0.3251 -0.3251
vn -0.3251 0.8881 -0.3251
vn -0.8881 -0.3251 -0.3251
vn -0.3251 -0.3251 -0.8881
vn -0.3251 -0.8881 -0.3251
vn -0.8881 0.3251 0.3251
vn -0.3251 0.3251 0.8881
vn -0.3251 0.8881 0.3251
vn -0.3251 -0.8881 0.3251
vn -0.3251 -0.3251 0.8881
vn -0.8881 -0.3251 0.3251
vn -0.3827 -0.9239 0.0000
vn -0.9239 -0.3827 0.0000
vn 0.0000 -0.9239 -0.3827
vn 0.0000 -0.3827 -0.9239
vn 0.9239 0.0000 -0.3827
vn 0.3827 0.0000 -0.9239
vn -0.3827 0.0000 0.9239
vn -0.9239 0.0000 0.3827
vn 0.3827 0.0000 0.9239
vn 0.9239 0.0000 0.3827
vn -0.3827 0.0000 -0.9239
vn -0.9239 0.0000 -0.3827
vn 0.0000 0.9239 0.3827
vn 0.0000 0.3827 0.9239
vn 0.3827 0.9239 0.0000
vn 0.9239 0.3827 0.0000
vn 0.0000 -0.9239 0.3827
vn 0.0000 -0.3827 0.9239
vn -0.3827 0.9239 0.0000
vn -0.9239 0.3827 0.0000
vn 0.0000 0.9239 -0.3827
vn 0.0000 0.3827 -0.9239
vn 0.3827 -0.9239 0.0000
vn 0.9239 -0.3827 0.0000
vn 0.0000 0.0000 -1.0000
s off
f 82/1/1 66/2/1 24/3/1 75/4/1
f 96/5/2 65/6/2 30/7/2 94/8/2
f 98/9/3 74/10/3 44/11/3 86/12/3
f 81/13/4 63/14/4 45/15/4 72/16/4
f 95/17/5 62/18/5 15/19/5 91/20/5
f 1/21/6 4/22/6 5/23/6 7/24/6
f 2/25/7 6/26/7 5/27/7 4/28/7
f 3/29/8 7/30/8 5/31/8 6/32/8
f 8/33/9 11/34/9 12/35/9 14/36/9
f 9/37/10 13/38/10 12/39/10 11/40/10
f 10/41/11 14/42/11 12/43/11 13/44/11
f 15/19/12 18/45/12 19/46/12 21/47/12
f 16/48/13 20/49/13 19/50/13 18/51/13
f 17/52/14 21/53/14 19/54/14 20/55/14
f 22/56/15 25/57/15 26/58/15 28/59/15
f 23/60/16 27/61/16 26/62/16 25/63/16
f 24/3/17 28/64/17 26/65/17 27/66/17
f 29/67/18 32/68/18 33/69/18 35/70/18
f 30/7/19 34/71/19 33/72/19 32/73/19
f 31/74/20 35/75/20 33/76/20 34/77/20
f 36/78/21 39/79/21 40/80/21 42/81/21
f 37/82/22 41/83/22 40/84/22 39/85/22
f 38/86/23 42/87/23 40/88/23 41/89/23
f 43/90/24 46/91/24 47/92/24 49/93/24
f 44/11/25 48/94/25 47/95/25 46/96/25
f 45/15/26 49/97/26 47/98/26 48/99/26
f 50/100/27 53/101/27 54/102/27 56/103/27
f 51/104/28 55/105/28 54/106/28 53/107/28
f 52/108/29 56/109/29 54/110/29 55/111/29
f 57/112/30 50/100/30 56/103/30 58/113/30
f 58/114/31 56/109/31 52/108/31 59/115/31
f 69/116/32 38/86/32 41/89/32 70/117/32
f 70/118/33 41/83/33 37/82/33 71/119/33
f 83/120/34 10/41/34 13/44/34 84/121/34
f 84/122/35 13/38/35 9/37/35 85/123/35
f 86/12/36 44/11/36 46/96/36 87/124/36
f 87/125/37 46/91/37 43/90/37 88/126/37
f 89/127/38 23/60/38 25/63/38 90/128/38
f 90/129/39 25/57/39 22/56/39 91/20/39
f 92/130/40 37/82/40 39/85/40 93/131/40
f 93/132/41 39/79/41 36/78/41 94/8/41
f 72/16/42 45/15/42 48/99/42 73/133/42
f 73/134/43 48/94/43 44/11/43 74/10/43
f 60/135/44 16/48/44 18/51/44 61/136/44
f 61/137/45 18/45/45 15/19/45 62/18/45
f 75/4/46 24/3/46 27/66/46 76/138/46
f 76/139/47 27/61/47 23/60/47 77/140/47
f 63/14/48 31/74/48 34/77/48 64/141/48
f 64/142/49 34/71/49 30/7/49 65/6/49
f 78/143/50 2/25/50 4/28/50 79/144/50
f 79/145/51 4/22/51 1/21/51 80/146/51
f 66/2/52 8/33/52 14/36/52 67/147/52
f 67/148/53 14/42/53 10/41/53 68/149/53
f 97/150/54 80/146/54 1/21/54 85/123/54
f 28/59/53 67/148/53 68/149/53 22/56/53
f 24/3/52 66/2/52 67/147/52 28/64/52
f 49/93/49 64/142/49 65/6/49 43/90/49
f 45/15/48 63/14/48 64/141/48 49/97/48
f 6/32/45 61/137/45 62/18/45 3/29/45
f 2/25/44 60/135/44 61/136/44 6/26/44
f 42/81/31 58/114/31 59/115/31 36/78/31
f 38/86/30 57/112/30 58/113/30 42/87/30
f 83/120/5 3/29/5 62/18/5 95/17/5
f 78/143/4 31/74/4 63/14/4 81/13/4
f 88/126/2 43/90/2 65/6/2 96/5/2
f 69/116/1 8/33/1 66/2/1 82/1/1
f 38/86/1 69/116/1 82/1/1 57/112/1
f 2/25/4 78/143/4 81/13/4 60/135/4
f 92/130/54 29/67/54 80/146/54 97/150/54
f 35/70/51 79/145/51 80/146/51 29/67/51
f 31/74/50 78/143/50 79/144/50 35/75/50
f 53/107/47 76/139/47 77/140/47 51/104/47
f 50/100/46 75/4/46 76/138/46 53/101/46
f 20/55/43 73/134/43 74/10/43 17/52/43
f 16/48/42 72/16/42 73/133/42 20/49/42
f 11/40/33 70/118/33 71/119/33 9/37/33
f 8/33/32 69/116/32 70/117/32 11/34/32
f 60/135/4 81/13/4 72/16/4 16/48/4
f 89/127/3 17/52/3 74/10/3 98/9/3
f 57/112/1 82/1/1 75/4/1 50/100/1
f 23/60/3 89/127/3 98/9/3 77/140/3
f 37/82/54 92/130/54 97/150/54 71/119/54
f 52/108/2 88/126/2 96/5/2 59/115/2
f 10/41/5 83/120/5 95/17/5 68/149/5
f 71/119/54 97/150/54 85/123/54 9/37/54
f 32/73/41 93/132/41 94/8/41 30/7/41
f 29/67/40 92/130/40 93/131/40 32/68/40
f 21/47/39 90/129/39 91/20/39 15/19/39
f 17/52/38 89/127/38 90/128/38 21/53/38
f 55/111/37 87/125/37 88/126/37 52/108/37
f 51/104/36 86/12/36 87/124/36 55/105/36
f 7/24/35 84/122/35 85/123/35 1/21/35
f 3/29/34 83/120/34 84/121/34 7/30/34
f 68/149/5 95/17/5 91/20/5 22/56/5
f 77/140/3 98/9/3 86/12/3 51/104/3
f 59/115/2 96/5/2 94/8/2 36/78/2
